<svg width="300" height="200" viewBox="0 0 300 200" fill="none" xmlns="http://www.w3.org/2000/svg">
<rect width="300" height="200" fill="white"/>
<g clip-path="url(#clip0_32_134)">
<path d="M138.95 81.4805L143.508 89.9203L141.997 92.1647H130.011L128.49 89.8755L133.047 81.4804H138.95V81.4805ZM140.204 79.3787H131.796L126.039 89.9851L128.885 94.2665H143.115L145.962 90.0398L140.204 79.3787H140.204Z" fill="#497BBB"/>
<path d="M138.802 86.3848H135.475L136.701 83.057H134.774L132.153 88.3269H139.847L138.802 86.3848H138.802ZM126.717 90.063L130.22 93.2156H142.13L145.633 90.063H126.717V90.063ZM136 75C134.437 75 133.169 76.2719 133.169 77.8413C133.169 78.0077 133.186 78.1695 133.214 78.3279H135.013C134.94 78.1804 134.896 78.0168 134.896 77.8413C134.896 77.2293 135.39 76.7333 136 76.7333C136.61 76.7333 137.103 77.2294 137.103 77.8413C137.103 78.0168 137.059 78.1804 136.987 78.3279H138.786C138.813 78.1695 138.83 78.0073 138.83 77.8413C138.831 76.2719 137.563 75 136 75Z" fill="#497BBB"/>
</g>
<path d="M70.9093 81.8184H39.0911C37.8359 81.8184 36.8184 82.8359 36.8184 84.0911V115.909C36.8184 117.165 37.8359 118.182 39.0911 118.182H70.9093C72.1645 118.182 73.182 117.165 73.182 115.909V84.0911C73.182 82.8359 72.1645 81.8184 70.9093 81.8184Z" fill="#00A2ED" stroke="black" stroke-width="4" stroke-linejoin="round"/>
<path d="M61.6365 93H48.0001V106.636H61.6365V93Z" fill="#00DFED" stroke="white" stroke-width="4" stroke-linejoin="round"/>
<path d="M44.6696 75V81.8182" stroke="black" stroke-width="4" stroke-linecap="round" stroke-linejoin="round"/>
<path d="M44.6696 118.182V125" stroke="black" stroke-width="4" stroke-linecap="round" stroke-linejoin="round"/>
<path d="M55 75V81.8182" stroke="black" stroke-width="4" stroke-linecap="round" stroke-linejoin="round"/>
<path d="M55 118.182V125" stroke="black" stroke-width="4" stroke-linecap="round" stroke-linejoin="round"/>
<path d="M65.3304 75V81.8182" stroke="black" stroke-width="4" stroke-linecap="round" stroke-linejoin="round"/>
<path d="M65.3304 118.182V125" stroke="black" stroke-width="4" stroke-linecap="round" stroke-linejoin="round"/>
<path d="M30 89.6697H36.8182" stroke="black" stroke-width="4" stroke-linecap="round" stroke-linejoin="round"/>
<path d="M73.1816 89.6697H79.9998" stroke="black" stroke-width="4" stroke-linecap="round" stroke-linejoin="round"/>
<path d="M30 100H36.8182" stroke="black" stroke-width="4" stroke-linecap="round" stroke-linejoin="round"/>
<path d="M73.1816 100H79.9998" stroke="black" stroke-width="4" stroke-linecap="round" stroke-linejoin="round"/>
<path d="M30 110.331H36.8182" stroke="black" stroke-width="4" stroke-linecap="round" stroke-linejoin="round"/>
<path d="M73.1816 110.331H79.9998" stroke="black" stroke-width="4" stroke-linecap="round" stroke-linejoin="round"/>
<path d="M222.909 144.818H191.091C189.836 144.818 188.818 145.836 188.818 147.091V178.909C188.818 180.165 189.836 181.182 191.091 181.182H222.909C224.165 181.182 225.182 180.165 225.182 178.909V147.091C225.182 145.836 224.165 144.818 222.909 144.818Z" fill="#00A2ED" stroke="black" stroke-width="4" stroke-linejoin="round"/>
<path d="M213.637 156H200V169.636H213.637V156Z" fill="#FFB900" stroke="white" stroke-width="4" stroke-linejoin="round"/>
<path d="M196.67 138V144.818" stroke="black" stroke-width="4" stroke-linecap="round" stroke-linejoin="round"/>
<path d="M196.67 181.182V188" stroke="black" stroke-width="4" stroke-linecap="round" stroke-linejoin="round"/>
<path d="M207 138V144.818" stroke="black" stroke-width="4" stroke-linecap="round" stroke-linejoin="round"/>
<path d="M207 181.182V188" stroke="black" stroke-width="4" stroke-linecap="round" stroke-linejoin="round"/>
<path d="M217.33 138V144.818" stroke="black" stroke-width="4" stroke-linecap="round" stroke-linejoin="round"/>
<path d="M217.33 181.182V188" stroke="black" stroke-width="4" stroke-linecap="round" stroke-linejoin="round"/>
<path d="M182 152.67H188.818" stroke="black" stroke-width="4" stroke-linecap="round" stroke-linejoin="round"/>
<path d="M225.182 152.67H232" stroke="black" stroke-width="4" stroke-linecap="round" stroke-linejoin="round"/>
<path d="M182 163H188.818" stroke="black" stroke-width="4" stroke-linecap="round" stroke-linejoin="round"/>
<path d="M225.182 163H232" stroke="black" stroke-width="4" stroke-linecap="round" stroke-linejoin="round"/>
<path d="M182 173.331H188.818" stroke="black" stroke-width="4" stroke-linecap="round" stroke-linejoin="round"/>
<path d="M225.182 173.331H232" stroke="black" stroke-width="4" stroke-linecap="round" stroke-linejoin="round"/>
<path d="M222.909 18.8184H191.091C189.836 18.8184 188.818 19.8359 188.818 21.0911V52.9093C188.818 54.1645 189.836 55.182 191.091 55.182H222.909C224.165 55.182 225.182 54.1645 225.182 52.9093V21.0911C225.182 19.8359 224.165 18.8184 222.909 18.8184Z" fill="#00A2ED" stroke="black" stroke-width="4" stroke-linejoin="round"/>
<path d="M213.637 30H200V43.6364H213.637V30Z" fill="#F25022" stroke="white" stroke-width="4" stroke-linejoin="round"/>
<path d="M196.67 12V18.8182" stroke="black" stroke-width="4" stroke-linecap="round" stroke-linejoin="round"/>
<path d="M196.67 55.1819V62.0001" stroke="black" stroke-width="4" stroke-linecap="round" stroke-linejoin="round"/>
<path d="M207 12V18.8182" stroke="black" stroke-width="4" stroke-linecap="round" stroke-linejoin="round"/>
<path d="M207 55.1819V62.0001" stroke="black" stroke-width="4" stroke-linecap="round" stroke-linejoin="round"/>
<path d="M217.33 12V18.8182" stroke="black" stroke-width="4" stroke-linecap="round" stroke-linejoin="round"/>
<path d="M217.33 55.1819V62.0001" stroke="black" stroke-width="4" stroke-linecap="round" stroke-linejoin="round"/>
<path d="M182 26.6697H188.818" stroke="black" stroke-width="4" stroke-linecap="round" stroke-linejoin="round"/>
<path d="M225.182 26.6697H232" stroke="black" stroke-width="4" stroke-linecap="round" stroke-linejoin="round"/>
<path d="M182 37H188.818" stroke="black" stroke-width="4" stroke-linecap="round" stroke-linejoin="round"/>
<path d="M225.182 37H232" stroke="black" stroke-width="4" stroke-linecap="round" stroke-linejoin="round"/>
<path d="M182 47.3306H188.818" stroke="black" stroke-width="4" stroke-linecap="round" stroke-linejoin="round"/>
<path d="M225.182 47.3306H232" stroke="black" stroke-width="4" stroke-linecap="round" stroke-linejoin="round"/>
<path d="M265.909 81.8184H234.091C232.836 81.8184 231.818 82.8359 231.818 84.0911V115.909C231.818 117.165 232.836 118.182 234.091 118.182H265.909C267.165 118.182 268.182 117.165 268.182 115.909V84.0911C268.182 82.8359 267.165 81.8184 265.909 81.8184Z" fill="#00A2ED" stroke="black" stroke-width="4" stroke-linejoin="round"/>
<path d="M256.637 93H243V106.636H256.637V93Z" fill="#7FBA00" stroke="white" stroke-width="4" stroke-linejoin="round"/>
<path d="M239.67 75V81.8182" stroke="black" stroke-width="4" stroke-linecap="round" stroke-linejoin="round"/>
<path d="M239.67 118.182V125" stroke="black" stroke-width="4" stroke-linecap="round" stroke-linejoin="round"/>
<path d="M250 75V81.8182" stroke="black" stroke-width="4" stroke-linecap="round" stroke-linejoin="round"/>
<path d="M250 118.182V125" stroke="black" stroke-width="4" stroke-linecap="round" stroke-linejoin="round"/>
<path d="M260.33 75V81.8182" stroke="black" stroke-width="4" stroke-linecap="round" stroke-linejoin="round"/>
<path d="M260.33 118.182V125" stroke="black" stroke-width="4" stroke-linecap="round" stroke-linejoin="round"/>
<path d="M225 89.6697H231.818" stroke="black" stroke-width="4" stroke-linecap="round" stroke-linejoin="round"/>
<path d="M268.182 89.6697H275" stroke="black" stroke-width="4" stroke-linecap="round" stroke-linejoin="round"/>
<path d="M225 100H231.818" stroke="black" stroke-width="4" stroke-linecap="round" stroke-linejoin="round"/>
<path d="M268.182 100H275" stroke="black" stroke-width="4" stroke-linecap="round" stroke-linejoin="round"/>
<path d="M225 110.331H231.818" stroke="black" stroke-width="4" stroke-linecap="round" stroke-linejoin="round"/>
<path d="M268.182 110.331H275" stroke="black" stroke-width="4" stroke-linecap="round" stroke-linejoin="round"/>
<path d="M161.707 100.707C162.098 100.317 162.098 99.6834 161.707 99.2929L155.343 92.9289C154.953 92.5384 154.319 92.5384 153.929 92.9289C153.538 93.3195 153.538 93.9526 153.929 94.3431L159.586 100L153.929 105.657C153.538 106.047 153.538 106.681 153.929 107.071C154.319 107.462 154.953 107.462 155.343 107.071L161.707 100.707ZM111 101H161V99H111V101Z" fill="black"/>
<path d="M25.9062 28H24.4414L22.6836 25.0557C22.5225 24.7822 22.3662 24.5503 22.2148 24.3599C22.0635 24.1646 21.9072 24.0059 21.7461 23.8838C21.5898 23.7617 21.4189 23.6738 21.2334 23.6201C21.0527 23.5615 20.8477 23.5322 20.6182 23.5322H19.6074V28H18.377V17.4971H21.5117C21.9707 17.4971 22.3931 17.5557 22.7788 17.6729C23.1694 17.7852 23.5063 17.9585 23.7896 18.1929C24.0776 18.4272 24.3022 18.7202 24.4634 19.0718C24.6245 19.4185 24.7051 19.8262 24.7051 20.2949C24.7051 20.6611 24.6489 20.998 24.5366 21.3057C24.4292 21.6084 24.2729 21.8794 24.0679 22.1187C23.8677 22.3579 23.6235 22.563 23.3354 22.7339C23.0522 22.8999 22.7324 23.0293 22.376 23.1221V23.1514C22.5518 23.2295 22.7031 23.3198 22.8301 23.4224C22.9619 23.52 23.0864 23.6372 23.2036 23.7739C23.3208 23.9106 23.4355 24.0669 23.5479 24.2427C23.665 24.4136 23.7944 24.6138 23.936 24.8433L25.9062 28ZM19.6074 18.6104V22.4189H21.2773C21.585 22.4189 21.8682 22.3726 22.127 22.2798C22.3906 22.187 22.6177 22.0552 22.8081 21.8843C22.9985 21.7085 23.1475 21.4961 23.2549 21.2471C23.3623 20.9932 23.416 20.71 23.416 20.3975C23.416 19.8359 23.2329 19.3989 22.8667 19.0864C22.5054 18.769 21.9805 18.6104 21.292 18.6104H19.6074ZM32.7837 24.5503H27.4883C27.5078 25.3853 27.7324 26.0298 28.1621 26.4839C28.5918 26.938 29.1826 27.165 29.9346 27.165C30.7793 27.165 31.5557 26.8867 32.2637 26.3301V27.458C31.6045 27.9365 30.7329 28.1758 29.6489 28.1758C28.5894 28.1758 27.7568 27.8364 27.1514 27.1577C26.5459 26.4741 26.2432 25.5146 26.2432 24.2793C26.2432 23.1123 26.5728 22.1626 27.2319 21.4302C27.896 20.6929 28.7188 20.3242 29.7002 20.3242C30.6816 20.3242 31.4409 20.6416 31.978 21.2764C32.5151 21.9111 32.7837 22.7925 32.7837 23.9204V24.5503ZM31.5532 23.5322C31.5483 22.8389 31.3799 22.2993 31.0479 21.9136C30.7207 21.5278 30.2642 21.335 29.6782 21.335C29.1118 21.335 28.6309 21.5376 28.2354 21.9429C27.8398 22.3481 27.5957 22.8779 27.5029 23.5322H31.5532ZM35.8379 26.916H35.8086V31.4497H34.6074V20.5H35.8086V21.8184H35.8379C36.4287 20.8223 37.293 20.3242 38.4307 20.3242C39.3975 20.3242 40.1519 20.6611 40.6938 21.335C41.2358 22.0039 41.5068 22.9023 41.5068 24.0303C41.5068 25.2852 41.2017 26.291 40.5913 27.0479C39.981 27.7998 39.146 28.1758 38.0864 28.1758C37.1147 28.1758 36.3652 27.7559 35.8379 26.916ZM35.8086 23.8911V24.9385C35.8086 25.5586 36.0088 26.0859 36.4092 26.5205C36.8145 26.9502 37.3271 27.165 37.9473 27.165C38.6748 27.165 39.2437 26.8867 39.6538 26.3301C40.0688 25.7734 40.2764 24.9995 40.2764 24.0083C40.2764 23.1733 40.0835 22.519 39.6978 22.0454C39.312 21.5718 38.7896 21.335 38.1304 21.335C37.4321 21.335 36.8706 21.5791 36.4458 22.0674C36.021 22.5508 35.8086 23.1587 35.8086 23.8911ZM44.627 28H43.4258V16.8965H44.627V28ZM47.6738 18.5957C47.459 18.5957 47.2759 18.5225 47.1245 18.376C46.9731 18.2295 46.8975 18.0439 46.8975 17.8193C46.8975 17.5947 46.9731 17.4092 47.1245 17.2627C47.2759 17.1113 47.459 17.0356 47.6738 17.0356C47.8936 17.0356 48.0791 17.1113 48.2305 17.2627C48.3867 17.4092 48.4648 17.5947 48.4648 17.8193C48.4648 18.0342 48.3867 18.2173 48.2305 18.3687C48.0791 18.52 47.8936 18.5957 47.6738 18.5957ZM48.2598 28H47.0586V20.5H48.2598V28ZM55.8037 27.6558C55.2275 28.0024 54.5439 28.1758 53.7529 28.1758C52.6836 28.1758 51.8193 27.8291 51.1602 27.1357C50.5059 26.4375 50.1787 25.5342 50.1787 24.4258C50.1787 23.1904 50.5327 22.1992 51.2407 21.4521C51.9487 20.7002 52.8936 20.3242 54.0752 20.3242C54.7344 20.3242 55.3154 20.4463 55.8184 20.6904V21.9209C55.2617 21.5303 54.666 21.335 54.0312 21.335C53.2646 21.335 52.6348 21.6108 52.1416 22.1626C51.6533 22.7095 51.4092 23.4297 51.4092 24.3232C51.4092 25.2021 51.6387 25.8955 52.0977 26.4033C52.5615 26.9111 53.1816 27.165 53.958 27.165C54.6123 27.165 55.2275 26.9478 55.8037 26.5132V27.6558ZM62.9888 28H61.7876V26.8281H61.7583C61.2358 27.7266 60.4668 28.1758 59.4512 28.1758C58.7041 28.1758 58.1182 27.978 57.6934 27.5825C57.2734 27.187 57.0635 26.6621 57.0635 26.0078C57.0635 24.6064 57.8887 23.791 59.5391 23.5615L61.7876 23.2466C61.7876 21.9722 61.2725 21.335 60.2422 21.335C59.3389 21.335 58.5234 21.6426 57.7959 22.2578V21.0273C58.5332 20.5586 59.3828 20.3242 60.3447 20.3242C62.1074 20.3242 62.9888 21.2568 62.9888 23.1221V28ZM61.7876 24.2061L59.9785 24.4551C59.4219 24.5332 59.002 24.6724 58.7188 24.8726C58.4355 25.0679 58.2939 25.417 58.2939 25.9199C58.2939 26.2861 58.4233 26.5864 58.6821 26.8208C58.9458 27.0503 59.2949 27.165 59.7295 27.165C60.3252 27.165 60.8159 26.9575 61.2017 26.5425C61.5923 26.1226 61.7876 25.5928 61.7876 24.9531V24.2061ZM68.731 27.9268C68.4478 28.083 68.0742 28.1611 67.6104 28.1611C66.2969 28.1611 65.6401 27.4287 65.6401 25.9639V21.5254H64.3511V20.5H65.6401V18.6689L66.8413 18.2808V20.5H68.731V21.5254H66.8413V25.7515C66.8413 26.2544 66.9268 26.6133 67.0977 26.8281C67.2686 27.043 67.5518 27.1504 67.9473 27.1504C68.25 27.1504 68.5112 27.0674 68.731 26.9014V27.9268ZM70.9502 18.5957C70.7354 18.5957 70.5522 18.5225 70.4009 18.376C70.2495 18.2295 70.1738 18.0439 70.1738 17.8193C70.1738 17.5947 70.2495 17.4092 70.4009 17.2627C70.5522 17.1113 70.7354 17.0356 70.9502 17.0356C71.1699 17.0356 71.3555 17.1113 71.5068 17.2627C71.6631 17.4092 71.7412 17.5947 71.7412 17.8193C71.7412 18.0342 71.6631 18.2173 71.5068 18.3687C71.3555 18.52 71.1699 18.5957 70.9502 18.5957ZM71.5361 28H70.335V20.5H71.5361V28ZM80.1934 28H78.9922V23.7227C78.9922 22.1309 78.4111 21.335 77.249 21.335C76.6484 21.335 76.1504 21.562 75.7549 22.0161C75.3643 22.4653 75.1689 23.0342 75.1689 23.7227V28H73.9678V20.5H75.1689V21.7451H75.1982C75.7646 20.7979 76.585 20.3242 77.6592 20.3242C78.4795 20.3242 79.1069 20.5903 79.5415 21.1226C79.9761 21.6499 80.1934 22.4141 80.1934 23.415V28ZM88.8652 27.3994C88.8652 30.1533 87.5469 31.5303 84.9102 31.5303C83.9824 31.5303 83.1719 31.3545 82.4785 31.0029V29.8018C83.3232 30.2705 84.1289 30.5049 84.8955 30.5049C86.7412 30.5049 87.6641 29.5234 87.6641 27.5605V26.7402H87.6348C87.0635 27.6973 86.2041 28.1758 85.0566 28.1758C84.124 28.1758 83.3721 27.8438 82.8008 27.1797C82.2344 26.5107 81.9512 25.6147 81.9512 24.4917C81.9512 23.2173 82.2563 22.2041 82.8667 21.4521C83.4819 20.7002 84.3218 20.3242 85.3862 20.3242C86.397 20.3242 87.1465 20.7295 87.6348 21.54H87.6641V20.5H88.8652V27.3994ZM87.6641 24.6089V23.5029C87.6641 22.9072 87.4614 22.397 87.0562 21.9722C86.6558 21.5474 86.1553 21.335 85.5547 21.335C84.8125 21.335 84.2314 21.606 83.8115 22.1479C83.3916 22.6851 83.1816 23.4395 83.1816 24.4111C83.1816 25.2461 83.3818 25.915 83.7822 26.418C84.1875 26.916 84.7222 27.165 85.3862 27.165C86.0601 27.165 86.6069 26.9258 87.0269 26.4473C87.4517 25.9688 87.6641 25.356 87.6641 24.6089ZM102.723 27.5605C101.946 27.9707 100.979 28.1758 99.8223 28.1758C98.3281 28.1758 97.1318 27.6948 96.2334 26.7329C95.335 25.771 94.8857 24.5088 94.8857 22.9463C94.8857 21.2666 95.3911 19.9092 96.4019 18.874C97.4126 17.8389 98.6943 17.3213 100.247 17.3213C101.243 17.3213 102.068 17.4653 102.723 17.7534V19.0645C101.971 18.6445 101.141 18.4346 100.232 18.4346C99.0264 18.4346 98.0474 18.8374 97.2954 19.6431C96.5483 20.4487 96.1748 21.5254 96.1748 22.873C96.1748 24.1523 96.5239 25.1729 97.2222 25.9346C97.9253 26.6914 98.8457 27.0698 99.9834 27.0698C101.038 27.0698 101.951 26.8354 102.723 26.3667V27.5605ZM106.092 24.0303V28H104.861V17.4971H107.747C108.87 17.4971 109.739 17.7705 110.354 18.3174C110.975 18.8643 111.285 19.6357 111.285 20.6318C111.285 21.6279 110.94 22.4434 110.252 23.0781C109.568 23.7129 108.643 24.0303 107.476 24.0303H106.092ZM106.092 18.6104V22.917H107.381C108.23 22.917 108.877 22.7241 109.322 22.3384C109.771 21.9478 109.996 21.3984 109.996 20.6904C109.996 19.3037 109.175 18.6104 107.535 18.6104H106.092ZM120.953 23.752C120.953 26.7012 119.622 28.1758 116.961 28.1758C114.412 28.1758 113.138 26.7573 113.138 23.9204V17.4971H114.368V23.8398C114.368 25.9932 115.276 27.0698 117.093 27.0698C118.846 27.0698 119.722 26.0298 119.722 23.9497V17.4971H120.953V23.752ZM122.967 27.729V26.4399C123.621 26.9233 124.341 27.165 125.127 27.165C126.182 27.165 126.709 26.8135 126.709 26.1104C126.709 25.9102 126.663 25.7417 126.57 25.605C126.482 25.4634 126.36 25.3389 126.204 25.2314C126.053 25.124 125.872 25.0288 125.662 24.9458C125.457 24.8579 125.235 24.7676 124.996 24.6748C124.664 24.543 124.371 24.4111 124.117 24.2793C123.868 24.1426 123.658 23.9912 123.487 23.8252C123.321 23.6543 123.194 23.4614 123.106 23.2466C123.023 23.0317 122.981 22.7803 122.981 22.4922C122.981 22.1406 123.062 21.8306 123.223 21.562C123.384 21.2886 123.599 21.0615 123.868 20.8809C124.136 20.6953 124.441 20.5562 124.783 20.4634C125.13 20.3706 125.486 20.3242 125.853 20.3242C126.502 20.3242 127.083 20.4365 127.596 20.6611V21.877C127.044 21.5156 126.409 21.335 125.691 21.335C125.467 21.335 125.264 21.3618 125.083 21.4155C124.903 21.4644 124.747 21.5352 124.615 21.6279C124.488 21.7207 124.388 21.833 124.314 21.9648C124.246 22.0918 124.212 22.2334 124.212 22.3896C124.212 22.585 124.246 22.7485 124.314 22.8804C124.388 23.0122 124.493 23.1294 124.629 23.2319C124.766 23.3345 124.932 23.4272 125.127 23.5103C125.323 23.5933 125.545 23.6836 125.794 23.7812C126.126 23.9082 126.424 24.04 126.688 24.1768C126.951 24.3086 127.176 24.46 127.361 24.6309C127.547 24.7969 127.688 24.9897 127.786 25.2095C127.889 25.4292 127.94 25.6904 127.94 25.9932C127.94 26.3643 127.857 26.6865 127.691 26.96C127.53 27.2334 127.312 27.4604 127.039 27.6411C126.766 27.8218 126.451 27.9561 126.094 28.0439C125.738 28.1318 125.364 28.1758 124.974 28.1758C124.202 28.1758 123.533 28.0269 122.967 27.729Z" fill="black"/>
<defs>
<clipPath id="clip0_32_134">
<rect width="20" height="19.2969" fill="white" transform="translate(126 75)"/>
</clipPath>
</defs>
</svg>
