<svg width="300" height="200" viewBox="0 0 300 200" fill="none" xmlns="http://www.w3.org/2000/svg">
<rect width="300" height="200" fill="white"/>
<path d="M268.5 77C268.815 77 269.117 77.1251 269.34 77.3478C269.562 77.5705 269.688 77.8726 269.688 78.1875V85.3125H276.812C277.127 85.3125 277.429 85.4376 277.652 85.6603C277.875 85.883 278 86.1851 278 86.5C278 86.8149 277.875 87.117 277.652 87.3397C277.429 87.5624 277.127 87.6875 276.812 87.6875H269.688V94.8125C269.688 95.1274 269.562 95.4295 269.34 95.6522C269.117 95.8749 268.815 96 268.5 96C268.185 96 267.883 95.8749 267.66 95.6522C267.438 95.4295 267.312 95.1274 267.312 94.8125V87.6875H260.188C259.873 87.6875 259.571 87.5624 259.348 87.3397C259.125 87.117 259 86.8149 259 86.5C259 86.1851 259.125 85.883 259.348 85.6603C259.571 85.4376 259.873 85.3125 260.188 85.3125H267.312V78.1875C267.312 77.8726 267.438 77.5705 267.66 77.3478C267.883 77.1251 268.185 77 268.5 77V77Z" fill="#7DB700"/>
<path d="M258.5 62C258.749 62 258.987 62.0988 259.163 62.2746C259.339 62.4504 259.438 62.6889 259.438 62.9375V68.5625H265.062C265.311 68.5625 265.55 68.6613 265.725 68.8371C265.901 69.0129 266 69.2514 266 69.5C266 69.7486 265.901 69.9871 265.725 70.1629C265.55 70.3387 265.311 70.4375 265.062 70.4375H259.438V76.0625C259.438 76.3111 259.339 76.5496 259.163 76.7254C258.987 76.9012 258.749 77 258.5 77C258.251 77 258.013 76.9012 257.837 76.7254C257.661 76.5496 257.562 76.3111 257.562 76.0625V70.4375H251.938C251.689 70.4375 251.45 70.3387 251.275 70.1629C251.099 69.9871 251 69.7486 251 69.5C251 69.2514 251.099 69.0129 251.275 68.8371C251.45 68.6613 251.689 68.5625 251.938 68.5625H257.562V62.9375C257.562 62.6889 257.661 62.4504 257.837 62.2746C258.013 62.0988 258.251 62 258.5 62V62Z" fill="#7DB700"/>
<path d="M281.5 62C281.682 62 281.857 62.0724 281.986 62.2014C282.115 62.3303 282.188 62.5052 282.188 62.6875V66.8125H286.312C286.495 66.8125 286.67 66.8849 286.799 67.0139C286.928 67.1428 287 67.3177 287 67.5C287 67.6823 286.928 67.8572 286.799 67.9861C286.67 68.1151 286.495 68.1875 286.312 68.1875H282.188V72.3125C282.188 72.4948 282.115 72.6697 281.986 72.7986C281.857 72.9276 281.682 73 281.5 73C281.318 73 281.143 72.9276 281.014 72.7986C280.885 72.6697 280.812 72.4948 280.812 72.3125V68.1875H276.688C276.505 68.1875 276.33 68.1151 276.201 67.9861C276.072 67.8572 276 67.6823 276 67.5C276 67.3177 276.072 67.1428 276.201 67.0139C276.33 66.8849 276.505 66.8125 276.688 66.8125H280.812V62.6875C280.812 62.5052 280.885 62.3303 281.014 62.2014C281.143 62.0724 281.318 62 281.5 62V62Z" fill="#7DB700"/>
<path d="M286.5 42C286.682 42 286.857 42.0724 286.986 42.2014C287.115 42.3303 287.188 42.5052 287.188 42.6875V46.8125H291.312C291.495 46.8125 291.67 46.8849 291.799 47.0139C291.928 47.1428 292 47.3177 292 47.5C292 47.6823 291.928 47.8572 291.799 47.9861C291.67 48.1151 291.495 48.1875 291.312 48.1875H287.188V52.3125C287.188 52.4948 287.115 52.6697 286.986 52.7986C286.857 52.9276 286.682 53 286.5 53C286.318 53 286.143 52.9276 286.014 52.7986C285.885 52.6697 285.812 52.4948 285.812 52.3125V48.1875H281.688C281.505 48.1875 281.33 48.1151 281.201 47.9861C281.072 47.8572 281 47.6823 281 47.5C281 47.3177 281.072 47.1428 281.201 47.0139C281.33 46.8849 281.505 46.8125 281.688 46.8125H285.812V42.6875C285.812 42.5052 285.885 42.3303 286.014 42.2014C286.143 42.0724 286.318 42 286.5 42V42Z" fill="#7DB700"/>
<path d="M271.5 47C271.649 47 271.792 47.0593 271.898 47.1648C272.003 47.2702 272.062 47.4133 272.062 47.5625V50.9375H275.438C275.587 50.9375 275.73 50.9968 275.835 51.1023C275.941 51.2077 276 51.3508 276 51.5C276 51.6492 275.941 51.7923 275.835 51.8977C275.73 52.0032 275.587 52.0625 275.438 52.0625H272.062V55.4375C272.062 55.5867 272.003 55.7298 271.898 55.8352C271.792 55.9407 271.649 56 271.5 56C271.351 56 271.208 55.9407 271.102 55.8352C270.997 55.7298 270.938 55.5867 270.938 55.4375V52.0625H267.562C267.413 52.0625 267.27 52.0032 267.165 51.8977C267.059 51.7923 267 51.6492 267 51.5C267 51.3508 267.059 51.2077 267.165 51.1023C267.27 50.9968 267.413 50.9375 267.562 50.9375H270.938V47.5625C270.938 47.4133 270.997 47.2702 271.102 47.1648C271.208 47.0593 271.351 47 271.5 47V47Z" fill="#7DB700"/>
<path d="M217.111 128.414H244.889V133.931H217.111V128.414Z" fill="#00A2ED"/>
<path d="M247.667 92.207C247.389 91.5174 247.111 91.1726 246.833 90.4829H214.333V96.0002H247.667V92.207Z" fill="#00A2ED"/>
<path d="M214.333 76.6892V82.2064H244.056C243.778 80.4823 243.5 78.4133 243.5 76.6892H214.333Z" fill="#00A2ED"/>
<path d="M253.222 98.4137V166.345H208.778V69.793H244.333C244.889 67.3792 245.722 64.9654 246.833 62.8965H207.389C205.167 62.8965 203.222 65.3103 203.222 68.0689V173.241H258.778V101.517C256.833 100.828 254.889 99.793 253.222 98.4137V98.4137Z" fill="#00A2ED"/>
<path d="M224 148.5C224 151.982 226.786 155 230.5 155C234.214 155 237 152.214 237 148.5C237 144.786 233.982 142 230.5 142C227.018 142 224 144.786 224 148.5ZM233.286 148.5C233.286 150.125 231.893 151.286 230.5 151.286C229.107 151.286 227.714 149.893 227.714 148.5C227.714 147.107 229.107 145.714 230.5 145.714C231.893 145.714 233.286 146.875 233.286 148.5Z" fill="#00A2ED"/>
<path d="M150.797 112.078L156.391 117.688L150.781 123.297L153 125.5L160.813 117.688L153 109.875L150.797 112.078ZM161.734 112.078L167.328 117.688L161.719 123.297L163.938 125.5L171.75 117.688L163.938 109.875L161.734 112.078Z" fill="black"/>
<path d="M146.75 116.125H131.125V92.5469L148.984 104.906C149.246 105.088 149.557 105.185 149.875 105.185C150.193 105.185 150.504 105.088 150.766 104.906L168.625 92.5469V106.75H171.75V91.125C171.75 90.2962 171.421 89.5013 170.835 88.9153C170.249 88.3292 169.454 88 168.625 88H131.125C130.296 88 129.501 88.3292 128.915 88.9153C128.329 89.5013 128 90.2962 128 91.125V116.125C128 116.954 128.329 117.749 128.915 118.335C129.501 118.921 130.296 119.25 131.125 119.25H146.75V116.125ZM165.187 91.125L149.875 101.719L134.562 91.125H165.187Z" fill="black"/>
<path d="M105.674 142.611L109.766 146.714L105.663 150.817L107.286 152.429L113 146.714L107.286 141L105.674 142.611ZM113.674 142.611L117.766 146.714L113.663 150.817L115.286 152.429L121 146.714L115.286 141L113.674 142.611Z" fill="black"/>
<path d="M102.714 145.571H91.2857V128.326L104.349 137.366C104.54 137.498 104.767 137.57 105 137.57C105.233 137.57 105.46 137.498 105.651 137.366L118.714 128.326V138.714H121V127.286C121 126.68 120.759 126.098 120.331 125.669C119.902 125.241 119.32 125 118.714 125H91.2857C90.6795 125 90.0981 125.241 89.6695 125.669C89.2408 126.098 89 126.68 89 127.286V145.571C89 146.178 89.2408 146.759 89.6695 147.188C90.0981 147.616 90.6795 147.857 91.2857 147.857H102.714V145.571ZM116.2 127.286L105 135.034L93.8 127.286H116.2Z" fill="black"/>
<path d="M89.0268 108.759L92.2232 111.964L89.0179 115.17L90.2857 116.429L94.75 111.964L90.2857 107.5L89.0268 108.759ZM95.2768 108.759L98.4732 111.964L95.2679 115.17L96.5357 116.429L101 111.964L96.5357 107.5L95.2768 108.759Z" fill="black"/>
<path d="M86.7142 111.071H77.7857V97.5982L87.991 104.661C88.1405 104.764 88.318 104.82 88.4999 104.82C88.6818 104.82 88.8594 104.764 89.0089 104.661L99.2142 97.5982V105.714H101V96.7857C101 96.3121 100.812 95.8579 100.477 95.523C100.142 95.1881 99.6878 95 99.2142 95H77.7857C77.3121 95 76.8579 95.1881 76.523 95.523C76.1881 95.8579 76 96.3121 76 96.7857V111.071C76 111.545 76.1881 111.999 76.523 112.334C76.8579 112.669 77.3121 112.857 77.7857 112.857H86.7142V111.071ZM97.2499 96.7857L88.4999 102.839L79.75 96.7857H97.2499Z" fill="black"/>
<rect x="33" y="116" width="40" height="2" rx="1" fill="url(#paint0_linear_32_52)" fill-opacity="0.8"/>
<rect x="40" y="123" width="40" height="2" rx="1" fill="url(#paint1_linear_32_52)" fill-opacity="0.8"/>
<rect x="7" y="109" width="44" height="2" rx="1" fill="url(#paint2_linear_32_52)" fill-opacity="0.8"/>
<rect x="22" y="130" width="51" height="2" rx="1" fill="url(#paint3_linear_32_52)" fill-opacity="0.8"/>
<rect x="31" y="137" width="51" height="2" rx="1" fill="url(#paint4_linear_32_52)" fill-opacity="0.8"/>
<path d="M25.9434 32H20.377V21.4971H25.709V22.6104H21.6074V26.104H25.4014V27.21H21.6074V30.8867H25.9434V32ZM33.6997 24.5L30.7114 32H29.5322L26.6904 24.5H28.0088L29.9131 29.9492C30.0547 30.3496 30.1426 30.6987 30.1768 30.9966H30.2061C30.2549 30.6206 30.333 30.2812 30.4404 29.9785L32.4326 24.5H33.6997ZM41.0239 28.5503H35.7285C35.748 29.3853 35.9727 30.0298 36.4023 30.4839C36.832 30.938 37.4229 31.165 38.1748 31.165C39.0195 31.165 39.7959 30.8867 40.5039 30.3301V31.458C39.8447 31.9365 38.9731 32.1758 37.8892 32.1758C36.8296 32.1758 35.9971 31.8364 35.3916 31.1577C34.7861 30.4741 34.4834 29.5146 34.4834 28.2793C34.4834 27.1123 34.813 26.1626 35.4722 25.4302C36.1362 24.6929 36.959 24.3242 37.9404 24.3242C38.9219 24.3242 39.6812 24.6416 40.2183 25.2764C40.7554 25.9111 41.0239 26.7925 41.0239 27.9204V28.5503ZM39.7935 27.5322C39.7886 26.8389 39.6201 26.2993 39.2881 25.9136C38.9609 25.5278 38.5044 25.335 37.9185 25.335C37.3521 25.335 36.8711 25.5376 36.4756 25.9429C36.0801 26.3481 35.8359 26.8779 35.7432 27.5322H39.7935ZM49.0732 32H47.8721V27.7227C47.8721 26.1309 47.291 25.335 46.1289 25.335C45.5283 25.335 45.0303 25.562 44.6348 26.0161C44.2441 26.4653 44.0488 27.0342 44.0488 27.7227V32H42.8477V24.5H44.0488V25.7451H44.0781C44.6445 24.7979 45.4648 24.3242 46.5391 24.3242C47.3594 24.3242 47.9868 24.5903 48.4214 25.1226C48.856 25.6499 49.0732 26.4141 49.0732 27.415V32ZM54.8228 31.9268C54.5396 32.083 54.166 32.1611 53.7021 32.1611C52.3887 32.1611 51.7319 31.4287 51.7319 29.9639V25.5254H50.4429V24.5H51.7319V22.6689L52.9331 22.2808V24.5H54.8228V25.5254H52.9331V29.7515C52.9331 30.2544 53.0186 30.6133 53.1895 30.8281C53.3604 31.043 53.6436 31.1504 54.0391 31.1504C54.3418 31.1504 54.603 31.0674 54.8228 30.9014V31.9268ZM60.2646 28.2939H56.2656V27.3491H60.2646V28.2939ZM62.5938 32V21.4971H65.4941C69.1953 21.4971 71.0459 23.2036 71.0459 26.6167C71.0459 28.2378 70.5308 29.5415 69.5005 30.5278C68.4751 31.5093 67.1006 32 65.377 32H62.5938ZM63.8242 22.6104V30.8867H65.3916C66.7686 30.8867 67.8403 30.5181 68.6069 29.7808C69.3735 29.0435 69.7568 27.9985 69.7568 26.646C69.7568 23.9556 68.3262 22.6104 65.4648 22.6104H63.8242ZM76.8613 25.7158C76.6514 25.5547 76.3486 25.4741 75.9531 25.4741C75.4404 25.4741 75.0107 25.7158 74.6641 26.1992C74.3223 26.6826 74.1514 27.3418 74.1514 28.1768V32H72.9502V24.5H74.1514V26.0454H74.1807C74.3516 25.5181 74.6128 25.1079 74.9644 24.8149C75.3159 24.5171 75.709 24.3682 76.1436 24.3682C76.4561 24.3682 76.6953 24.4023 76.8613 24.4707V25.7158ZM78.7803 22.5957C78.5654 22.5957 78.3823 22.5225 78.231 22.376C78.0796 22.2295 78.0039 22.0439 78.0039 21.8193C78.0039 21.5947 78.0796 21.4092 78.231 21.2627C78.3823 21.1113 78.5654 21.0356 78.7803 21.0356C79 21.0356 79.1855 21.1113 79.3369 21.2627C79.4932 21.4092 79.5713 21.5947 79.5713 21.8193C79.5713 22.0342 79.4932 22.2173 79.3369 22.3687C79.1855 22.52 79 22.5957 78.7803 22.5957ZM79.3662 32H78.165V24.5H79.3662V32ZM87.6938 24.5L84.7056 32H83.5264L80.6846 24.5H82.0029L83.9072 29.9492C84.0488 30.3496 84.1367 30.6987 84.1709 30.9966H84.2002C84.249 30.6206 84.3271 30.2812 84.4346 29.9785L86.4268 24.5H87.6938ZM95.0181 28.5503H89.7227C89.7422 29.3853 89.9668 30.0298 90.3965 30.4839C90.8262 30.938 91.417 31.165 92.1689 31.165C93.0137 31.165 93.79 30.8867 94.498 30.3301V31.458C93.8389 31.9365 92.9673 32.1758 91.8833 32.1758C90.8237 32.1758 89.9912 31.8364 89.3857 31.1577C88.7803 30.4741 88.4775 29.5146 88.4775 28.2793C88.4775 27.1123 88.8071 26.1626 89.4663 25.4302C90.1304 24.6929 90.9531 24.3242 91.9346 24.3242C92.916 24.3242 93.6753 24.6416 94.2124 25.2764C94.7495 25.9111 95.0181 26.7925 95.0181 27.9204V28.5503ZM93.7876 27.5322C93.7827 26.8389 93.6143 26.2993 93.2822 25.9136C92.9551 25.5278 92.4985 25.335 91.9126 25.335C91.3462 25.335 90.8652 25.5376 90.4697 25.9429C90.0742 26.3481 89.8301 26.8779 89.7373 27.5322H93.7876ZM103.067 32H101.866V27.7227C101.866 26.1309 101.285 25.335 100.123 25.335C99.5225 25.335 99.0244 25.562 98.6289 26.0161C98.2383 26.4653 98.043 27.0342 98.043 27.7227V32H96.8418V24.5H98.043V25.7451H98.0723C98.6387 24.7979 99.459 24.3242 100.533 24.3242C101.354 24.3242 101.981 24.5903 102.416 25.1226C102.85 25.6499 103.067 26.4141 103.067 27.415V32ZM109.125 31.5752V30.125C109.291 30.2715 109.488 30.4033 109.718 30.5205C109.952 30.6377 110.196 30.7378 110.45 30.8208C110.709 30.8989 110.968 30.96 111.227 31.0039C111.485 31.0479 111.725 31.0698 111.944 31.0698C112.701 31.0698 113.265 30.9307 113.636 30.6523C114.012 30.3691 114.2 29.9639 114.2 29.4365C114.2 29.1533 114.137 28.9067 114.01 28.6968C113.888 28.4868 113.717 28.2964 113.497 28.1255C113.277 27.9497 113.016 27.7837 112.713 27.6274C112.416 27.4663 112.093 27.2979 111.747 27.1221C111.38 26.9365 111.039 26.7485 110.721 26.5581C110.404 26.3677 110.128 26.1577 109.894 25.9282C109.659 25.6987 109.474 25.4399 109.337 25.1519C109.205 24.8589 109.139 24.5171 109.139 24.1265C109.139 23.6479 109.244 23.2329 109.454 22.8813C109.664 22.5249 109.94 22.2319 110.282 22.0024C110.624 21.7729 111.012 21.6021 111.446 21.4897C111.886 21.3774 112.333 21.3213 112.787 21.3213C113.822 21.3213 114.576 21.4458 115.05 21.6948V23.0791C114.43 22.6494 113.634 22.4346 112.662 22.4346C112.394 22.4346 112.125 22.4639 111.856 22.5225C111.588 22.5762 111.349 22.6665 111.139 22.7935C110.929 22.9204 110.758 23.084 110.626 23.2842C110.494 23.4844 110.428 23.7285 110.428 24.0166C110.428 24.2852 110.477 24.5171 110.575 24.7124C110.677 24.9077 110.826 25.0859 111.021 25.2471C111.217 25.4082 111.454 25.5645 111.732 25.7158C112.015 25.8672 112.34 26.0332 112.706 26.2139C113.082 26.3994 113.438 26.5947 113.775 26.7998C114.112 27.0049 114.408 27.2319 114.662 27.481C114.916 27.73 115.116 28.0059 115.262 28.3086C115.414 28.6113 115.489 28.958 115.489 29.3486C115.489 29.8662 115.387 30.3057 115.182 30.667C114.981 31.0234 114.708 31.314 114.361 31.5386C114.02 31.7632 113.624 31.9243 113.175 32.022C112.726 32.1245 112.252 32.1758 111.754 32.1758C111.588 32.1758 111.383 32.1611 111.139 32.1318C110.895 32.1074 110.646 32.0684 110.392 32.0146C110.138 31.9658 109.896 31.9048 109.667 31.8315C109.442 31.7534 109.261 31.668 109.125 31.5752ZM122.535 31.6558C121.959 32.0024 121.275 32.1758 120.484 32.1758C119.415 32.1758 118.551 31.8291 117.892 31.1357C117.237 30.4375 116.91 29.5342 116.91 28.4258C116.91 27.1904 117.264 26.1992 117.972 25.4521C118.68 24.7002 119.625 24.3242 120.807 24.3242C121.466 24.3242 122.047 24.4463 122.55 24.6904V25.9209C121.993 25.5303 121.397 25.335 120.763 25.335C119.996 25.335 119.366 25.6108 118.873 26.1626C118.385 26.7095 118.141 27.4297 118.141 28.3232C118.141 29.2021 118.37 29.8955 118.829 30.4033C119.293 30.9111 119.913 31.165 120.689 31.165C121.344 31.165 121.959 30.9478 122.535 30.5132V31.6558ZM129.72 32H128.519V30.8281H128.49C127.967 31.7266 127.198 32.1758 126.183 32.1758C125.436 32.1758 124.85 31.978 124.425 31.5825C124.005 31.187 123.795 30.6621 123.795 30.0078C123.795 28.6064 124.62 27.791 126.271 27.5615L128.519 27.2466C128.519 25.9722 128.004 25.335 126.974 25.335C126.07 25.335 125.255 25.6426 124.527 26.2578V25.0273C125.265 24.5586 126.114 24.3242 127.076 24.3242C128.839 24.3242 129.72 25.2568 129.72 27.1221V32ZM128.519 28.2061L126.71 28.4551C126.153 28.5332 125.733 28.6724 125.45 28.8726C125.167 29.0679 125.025 29.417 125.025 29.9199C125.025 30.2861 125.155 30.5864 125.414 30.8208C125.677 31.0503 126.026 31.165 126.461 31.165C127.057 31.165 127.547 30.9575 127.933 30.5425C128.324 30.1226 128.519 29.5928 128.519 28.9531V28.2061ZM133.185 32H131.983V20.8965H133.185V32ZM136.231 22.5957C136.017 22.5957 135.833 22.5225 135.682 22.376C135.531 22.2295 135.455 22.0439 135.455 21.8193C135.455 21.5947 135.531 21.4092 135.682 21.2627C135.833 21.1113 136.017 21.0356 136.231 21.0356C136.451 21.0356 136.637 21.1113 136.788 21.2627C136.944 21.4092 137.022 21.5947 137.022 21.8193C137.022 22.0342 136.944 22.2173 136.788 22.3687C136.637 22.52 136.451 22.5957 136.231 22.5957ZM136.817 32H135.616V24.5H136.817V32ZM145.475 32H144.273V27.7227C144.273 26.1309 143.692 25.335 142.53 25.335C141.93 25.335 141.432 25.562 141.036 26.0161C140.646 26.4653 140.45 27.0342 140.45 27.7227V32H139.249V24.5H140.45V25.7451H140.479C141.046 24.7979 141.866 24.3242 142.94 24.3242C143.761 24.3242 144.388 24.5903 144.823 25.1226C145.257 25.6499 145.475 26.4141 145.475 27.415V32ZM154.146 31.3994C154.146 34.1533 152.828 35.5303 150.191 35.5303C149.264 35.5303 148.453 35.3545 147.76 35.0029V33.8018C148.604 34.2705 149.41 34.5049 150.177 34.5049C152.022 34.5049 152.945 33.5234 152.945 31.5605V30.7402H152.916C152.345 31.6973 151.485 32.1758 150.338 32.1758C149.405 32.1758 148.653 31.8438 148.082 31.1797C147.516 30.5107 147.232 29.6147 147.232 28.4917C147.232 27.2173 147.538 26.2041 148.148 25.4521C148.763 24.7002 149.603 24.3242 150.667 24.3242C151.678 24.3242 152.428 24.7295 152.916 25.54H152.945V24.5H154.146V31.3994ZM152.945 28.6089V27.5029C152.945 26.9072 152.743 26.397 152.337 25.9722C151.937 25.5474 151.437 25.335 150.836 25.335C150.094 25.335 149.513 25.606 149.093 26.1479C148.673 26.6851 148.463 27.4395 148.463 28.4111C148.463 29.2461 148.663 29.915 149.063 30.418C149.469 30.916 150.003 31.165 150.667 31.165C151.341 31.165 151.888 30.9258 152.308 30.4473C152.733 29.9688 152.945 29.356 152.945 28.6089Z" fill="black"/>
<defs>
<linearGradient id="paint0_linear_32_52" x1="73" y1="117" x2="33" y2="117" gradientUnits="userSpaceOnUse">
<stop stop-color="#00A2ED"/>
<stop offset="1" stop-color="#00A2ED" stop-opacity="0"/>
</linearGradient>
<linearGradient id="paint1_linear_32_52" x1="80" y1="124" x2="40" y2="124" gradientUnits="userSpaceOnUse">
<stop stop-color="#00A2ED"/>
<stop offset="1" stop-color="#00A2ED" stop-opacity="0"/>
</linearGradient>
<linearGradient id="paint2_linear_32_52" x1="51" y1="110" x2="7" y2="110" gradientUnits="userSpaceOnUse">
<stop stop-color="#00A2ED"/>
<stop offset="1" stop-color="#00A2ED" stop-opacity="0"/>
</linearGradient>
<linearGradient id="paint3_linear_32_52" x1="73" y1="131" x2="22" y2="131" gradientUnits="userSpaceOnUse">
<stop stop-color="#00A2ED"/>
<stop offset="1" stop-color="#00A2ED" stop-opacity="0"/>
</linearGradient>
<linearGradient id="paint4_linear_32_52" x1="82" y1="138" x2="31" y2="138" gradientUnits="userSpaceOnUse">
<stop stop-color="#00A2ED"/>
<stop offset="1" stop-color="#00A2ED" stop-opacity="0"/>
</linearGradient>
</defs>
</svg>
